<svg xmlns="http://www.w3.org/2000/svg" xmlns:xlink="http://www.w3.org/1999/xlink" version="1.1" class="marks" width="1088" height="559" viewBox="0 0 1088 559"><rect width="1088" height="559" fill="white"/><g fill="none" stroke-miterlimit="10" transform="translate(44,22)"><g class="mark-group role-frame root" role="graphics-object" aria-roledescription="group mark container"><g transform="translate(0,0)"><path class="background" aria-hidden="true" d="M0.5,0.5h1000v500h-1000Z" stroke="#ddd"/><g><g class="mark-group role-axis" role="graphics-symbol" aria-roledescription="axis" aria-label="X-axis titled 'Date' for a time scale with values from Saturday, 04 January 2025, 3:23:12 PM to Thursday, 13 November 2025, 9:00:09 PM"><g transform="translate(0.5,500.5)"><path class="background" aria-hidden="true" d="M0,0h0v0h0Z" pointer-events="none"/><g><g class="mark-rule role-axis-tick" pointer-events="none"><line transform="translate(292,0)" x2="0" y2="5" stroke="#888" stroke-width="1" opacity="1"/><line transform="translate(314,0)" x2="0" y2="5" stroke="#888" stroke-width="1" opacity="1"/><line transform="translate(336,0)" x2="0" y2="5" stroke="#888" stroke-width="1" opacity="1"/><line transform="translate(359,0)" x2="0" y2="5" stroke="#888" stroke-width="1" opacity="1"/><line transform="translate(381,0)" x2="0" y2="5" stroke="#888" stroke-width="1" opacity="1"/><line transform="translate(403,0)" x2="0" y2="5" stroke="#888" stroke-width="1" opacity="1"/><line transform="translate(426,0)" x2="0" y2="5" stroke="#888" stroke-width="1" opacity="1"/><line transform="translate(448,0)" x2="0" y2="5" stroke="#888" stroke-width="1" opacity="1"/><line transform="translate(470,0)" x2="0" y2="5" stroke="#888" stroke-width="1" opacity="1"/><line transform="translate(269,0)" x2="0" y2="5" stroke="#888" stroke-width="1" opacity="1"/><line transform="translate(247,0)" x2="0" y2="5" stroke="#888" stroke-width="1" opacity="1"/><line transform="translate(493,0)" x2="0" y2="5" stroke="#888" stroke-width="1" opacity="1"/><line transform="translate(515,0)" x2="0" y2="5" stroke="#888" stroke-width="1" opacity="1"/><line transform="translate(537,0)" x2="0" y2="5" stroke="#888" stroke-width="1" opacity="1"/><line transform="translate(560,0)" x2="0" y2="5" stroke="#888" stroke-width="1" opacity="1"/><line transform="translate(582,0)" x2="0" y2="5" stroke="#888" stroke-width="1" opacity="1"/><line transform="translate(224,0)" x2="0" y2="5" stroke="#888" stroke-width="1" opacity="1"/><line transform="translate(202,0)" x2="0" y2="5" stroke="#888" stroke-width="1" opacity="1"/><line transform="translate(604,0)" x2="0" y2="5" stroke="#888" stroke-width="1" opacity="1"/><line transform="translate(180,0)" x2="0" y2="5" stroke="#888" stroke-width="1" opacity="1"/><line transform="translate(627,0)" x2="0" y2="5" stroke="#888" stroke-width="1" opacity="1"/><line transform="translate(649,0)" x2="0" y2="5" stroke="#888" stroke-width="1" opacity="1"/><line transform="translate(158,0)" x2="0" y2="5" stroke="#888" stroke-width="1" opacity="1"/><line transform="translate(671,0)" x2="0" y2="5" stroke="#888" stroke-width="1" opacity="1"/><line transform="translate(135,0)" x2="0" y2="5" stroke="#888" stroke-width="1" opacity="1"/><line transform="translate(113,0)" x2="0" y2="5" stroke="#888" stroke-width="1" opacity="1"/><line transform="translate(91,0)" x2="0" y2="5" stroke="#888" stroke-width="1" opacity="1"/><line transform="translate(68,0)" x2="0" y2="5" stroke="#888" stroke-width="1" opacity="1"/><line transform="translate(46,0)" x2="0" y2="5" stroke="#888" stroke-width="1" opacity="1"/><line transform="translate(23,0)" x2="0" y2="5" stroke="#888" stroke-width="1" opacity="1"/><line transform="translate(694,0)" x2="0" y2="5" stroke="#888" stroke-width="1" opacity="1"/><line transform="translate(1,0)" x2="0" y2="5" stroke="#888" stroke-width="1" opacity="1"/><line transform="translate(716,0)" x2="0" y2="5" stroke="#888" stroke-width="1" opacity="1"/><line transform="translate(738,0)" x2="0" y2="5" stroke="#888" stroke-width="1" opacity="1"/><line transform="translate(761,0)" x2="0" y2="5" stroke="#888" stroke-width="1" opacity="1"/><line transform="translate(783,0)" x2="0" y2="5" stroke="#888" stroke-width="1" opacity="1"/><line transform="translate(806,0)" x2="0" y2="5" stroke="#888" stroke-width="1" opacity="1"/><line transform="translate(828,0)" x2="0" y2="5" stroke="#888" stroke-width="1" opacity="1"/><line transform="translate(850,0)" x2="0" y2="5" stroke="#888" stroke-width="1" opacity="1"/><line transform="translate(873,0)" x2="0" y2="5" stroke="#888" stroke-width="1" opacity="1"/><line transform="translate(895,0)" x2="0" y2="5" stroke="#888" stroke-width="1" opacity="1"/><line transform="translate(917,0)" x2="0" y2="5" stroke="#888" stroke-width="1" opacity="1"/><line transform="translate(940,0)" x2="0" y2="5" stroke="#888" stroke-width="1" opacity="1"/><line transform="translate(962,0)" x2="0" y2="5" stroke="#888" stroke-width="1" opacity="1"/><line transform="translate(984,0)" x2="0" y2="5" stroke="#888" stroke-width="1" opacity="1"/></g><g class="mark-text role-axis-label" pointer-events="none"><text text-anchor="middle" transform="translate(291.5303567163684,15)" font-family="sans-serif" font-size="10px" fill="#000" opacity="0">Apr 06</text><text text-anchor="middle" transform="translate(313.8778675384764,15)" font-family="sans-serif" font-size="10px" fill="#000" opacity="1">Apr 13</text><text text-anchor="middle" transform="translate(336.2253783605844,15)" font-family="sans-serif" font-size="10px" fill="#000" opacity="0">Apr 20</text><text text-anchor="middle" transform="translate(358.57288918269245,15)" font-family="sans-serif" font-size="10px" fill="#000" opacity="1">Apr 27</text><text text-anchor="middle" transform="translate(380.9204000048005,15)" font-family="sans-serif" font-size="10px" fill="#000" opacity="0">May 04</text><text text-anchor="middle" transform="translate(403.2679108269085,15)" font-family="sans-serif" font-size="10px" fill="#000" opacity="1">May 11</text><text text-anchor="middle" transform="translate(425.6154216490165,15)" font-family="sans-serif" font-size="10px" fill="#000" opacity="0">May 18</text><text text-anchor="middle" transform="translate(447.96293247112453,15)" font-family="sans-serif" font-size="10px" fill="#000" opacity="1">May 25</text><text text-anchor="middle" transform="translate(470.31044329323254,15)" font-family="sans-serif" font-size="10px" fill="#000" opacity="0">June</text><text text-anchor="middle" transform="translate(269.18284589426037,15)" font-family="sans-serif" font-size="10px" fill="#000" opacity="1">Mar 30</text><text text-anchor="middle" transform="translate(246.83533507215236,15)" font-family="sans-serif" font-size="10px" fill="#000" opacity="0">Mar 23</text><text text-anchor="middle" transform="translate(492.65795411534054,15)" font-family="sans-serif" font-size="10px" fill="#000" opacity="1">Jun 08</text><text text-anchor="middle" transform="translate(515.0054649374486,15)" font-family="sans-serif" font-size="10px" fill="#000" opacity="0">Jun 15</text><text text-anchor="middle" transform="translate(537.3529757595566,15)" font-family="sans-serif" font-size="10px" fill="#000" opacity="1">Jun 22</text><text text-anchor="middle" transform="translate(559.7004865816646,15)" font-family="sans-serif" font-size="10px" fill="#000" opacity="0">Jun 29</text><text text-anchor="middle" transform="translate(582.0479974037726,15)" font-family="sans-serif" font-size="10px" fill="#000" opacity="1">Jul 06</text><text text-anchor="middle" transform="translate(224.48782425004435,15)" font-family="sans-serif" font-size="10px" fill="#000" opacity="1">Mar 16</text><text text-anchor="middle" transform="translate(202.273334325687,15)" font-family="sans-serif" font-size="10px" fill="#000" opacity="0">Mar 09</text><text text-anchor="middle" transform="translate(604.3955082258806,15)" font-family="sans-serif" font-size="10px" fill="#000" opacity="0">Jul 13</text><text text-anchor="middle" transform="translate(179.92582350357895,15)" font-family="sans-serif" font-size="10px" fill="#000" opacity="1">Mar 02</text><text text-anchor="middle" transform="translate(626.7430190479887,15)" font-family="sans-serif" font-size="10px" fill="#000" opacity="1">Jul 20</text><text text-anchor="middle" transform="translate(649.0905298700966,15)" font-family="sans-serif" font-size="10px" fill="#000" opacity="0">Jul 27</text><text text-anchor="middle" transform="translate(157.57831268147095,15)" font-family="sans-serif" font-size="10px" fill="#000" opacity="0">Feb 23</text><text text-anchor="middle" transform="translate(671.4380406922047,15)" font-family="sans-serif" font-size="10px" fill="#000" opacity="1">Aug 03</text><text text-anchor="middle" transform="translate(135.2308018593629,15)" font-family="sans-serif" font-size="10px" fill="#000" opacity="1">Feb 16</text><text text-anchor="middle" transform="translate(112.8832910372549,15)" font-family="sans-serif" font-size="10px" fill="#000" opacity="0">Feb 09</text><text text-anchor="middle" transform="translate(90.53578021514689,15)" font-family="sans-serif" font-size="10px" fill="#000" opacity="1">Feb 02</text><text text-anchor="middle" transform="translate(68.18826939303887,15)" font-family="sans-serif" font-size="10px" fill="#000" opacity="0">Jan 26</text><text text-anchor="middle" transform="translate(45.840758570930845,15)" font-family="sans-serif" font-size="10px" fill="#000" opacity="1">Jan 19</text><text text-anchor="middle" transform="translate(23.49324774882283,15)" font-family="sans-serif" font-size="10px" fill="#000" opacity="0">Jan 12</text><text text-anchor="middle" transform="translate(693.7855515143126,15)" font-family="sans-serif" font-size="10px" fill="#000" opacity="0">Aug 10</text><text text-anchor="middle" transform="translate(1.1457369267148154,15)" font-family="sans-serif" font-size="10px" fill="#000" opacity="1">Jan 05</text><text text-anchor="middle" transform="translate(716.1330623364207,15)" font-family="sans-serif" font-size="10px" fill="#000" opacity="1">Aug 17</text><text text-anchor="middle" transform="translate(738.4805731585287,15)" font-family="sans-serif" font-size="10px" fill="#000" opacity="0">Aug 24</text><text text-anchor="middle" transform="translate(760.8280839806367,15)" font-family="sans-serif" font-size="10px" fill="#000" opacity="1">Aug 31</text><text text-anchor="middle" transform="translate(783.1755948027447,15)" font-family="sans-serif" font-size="10px" fill="#000" opacity="0">Sep 07</text><text text-anchor="middle" transform="translate(805.5231056248527,15)" font-family="sans-serif" font-size="10px" fill="#000" opacity="1">Sep 14</text><text text-anchor="middle" transform="translate(827.8706164469608,15)" font-family="sans-serif" font-size="10px" fill="#000" opacity="0">Sep 21</text><text text-anchor="middle" transform="translate(850.2181272690688,15)" font-family="sans-serif" font-size="10px" fill="#000" opacity="1">Sep 28</text><text text-anchor="middle" transform="translate(872.5656380911768,15)" font-family="sans-serif" font-size="10px" fill="#000" opacity="0">Oct 05</text><text text-anchor="middle" transform="translate(894.9131489132849,15)" font-family="sans-serif" font-size="10px" fill="#000" opacity="1">Oct 12</text><text text-anchor="middle" transform="translate(917.2606597353929,15)" font-family="sans-serif" font-size="10px" fill="#000" opacity="0">Oct 19</text><text text-anchor="middle" transform="translate(939.6081705575009,15)" font-family="sans-serif" font-size="10px" fill="#000" opacity="1">Oct 26</text><text text-anchor="middle" transform="translate(961.9556813796089,15)" font-family="sans-serif" font-size="10px" fill="#000" opacity="0">Nov 02</text><text text-anchor="middle" transform="translate(984.4362130994676,15)" font-family="sans-serif" font-size="10px" fill="#000" opacity="1">Nov 09</text></g><g class="mark-rule role-axis-domain" pointer-events="none"><line transform="translate(0,0)" x2="1000" y2="0" stroke="#888" stroke-width="1" opacity="1"/></g><g class="mark-text role-axis-title" pointer-events="none"><text text-anchor="middle" transform="translate(500,30)" font-family="sans-serif" font-size="11px" font-weight="bold" fill="#000" opacity="1">Date</text></g></g><path class="foreground" aria-hidden="true" d="" pointer-events="none" display="none"/></g></g><g class="mark-group role-axis" role="graphics-symbol" aria-roledescription="axis" aria-label="Y-axis titled 'Percentage Return (%)' for a linear scale with values from −137 to 173"><g transform="translate(0.5,0.5)"><path class="background" aria-hidden="true" d="M0,0h0v0h0Z" pointer-events="none"/><g><g class="mark-rule role-axis-tick" pointer-events="none"><line transform="translate(0,344)" x2="-5" y2="0" stroke="#888" stroke-width="1" opacity="1"/><line transform="translate(0,377)" x2="-5" y2="0" stroke="#888" stroke-width="1" opacity="1"/><line transform="translate(0,409)" x2="-5" y2="0" stroke="#888" stroke-width="1" opacity="1"/><line transform="translate(0,441)" x2="-5" y2="0" stroke="#888" stroke-width="1" opacity="1"/><line transform="translate(0,312)" x2="-5" y2="0" stroke="#888" stroke-width="1" opacity="1"/><line transform="translate(0,280)" x2="-5" y2="0" stroke="#888" stroke-width="1" opacity="1"/><line transform="translate(0,248)" x2="-5" y2="0" stroke="#888" stroke-width="1" opacity="1"/><line transform="translate(0,215)" x2="-5" y2="0" stroke="#888" stroke-width="1" opacity="1"/><line transform="translate(0,183)" x2="-5" y2="0" stroke="#888" stroke-width="1" opacity="1"/><line transform="translate(0,151)" x2="-5" y2="0" stroke="#888" stroke-width="1" opacity="1"/><line transform="translate(0,119)" x2="-5" y2="0" stroke="#888" stroke-width="1" opacity="1"/><line transform="translate(0,86)" x2="-5" y2="0" stroke="#888" stroke-width="1" opacity="1"/><line transform="translate(0,473)" x2="-5" y2="0" stroke="#888" stroke-width="1" opacity="1"/><line transform="translate(0,54)" x2="-5" y2="0" stroke="#888" stroke-width="1" opacity="1"/><line transform="translate(0,22)" x2="-5" y2="0" stroke="#888" stroke-width="1" opacity="1"/></g><g class="mark-text role-axis-label" pointer-events="none"><text text-anchor="end" transform="translate(-7,347.33930398949303)" font-family="sans-serif" font-size="10px" fill="#000" opacity="1">−40</text><text text-anchor="end" transform="translate(-7,379.59989883259493)" font-family="sans-serif" font-size="10px" fill="#000" opacity="1">−60</text><text text-anchor="end" transform="translate(-7,411.8604936756969)" font-family="sans-serif" font-size="10px" fill="#000" opacity="1">−80</text><text text-anchor="end" transform="translate(-7,444.12108851879884)" font-family="sans-serif" font-size="10px" fill="#000" opacity="1">−100</text><text text-anchor="end" transform="translate(-7,315.07870914639113)" font-family="sans-serif" font-size="10px" fill="#000" opacity="1">−20</text><text text-anchor="end" transform="translate(-7,282.8181143032892)" font-family="sans-serif" font-size="10px" fill="#000" opacity="1">0</text><text text-anchor="end" transform="translate(-7,250.55751946018722)" font-family="sans-serif" font-size="10px" fill="#000" opacity="1">20</text><text text-anchor="end" transform="translate(-7,218.29692461708532)" font-family="sans-serif" font-size="10px" fill="#000" opacity="1">40</text><text text-anchor="end" transform="translate(-7,186.03632977398337)" font-family="sans-serif" font-size="10px" fill="#000" opacity="1">60</text><text text-anchor="end" transform="translate(-7,153.7757349308814)" font-family="sans-serif" font-size="10px" fill="#000" opacity="1">80</text><text text-anchor="end" transform="translate(-7,121.51514008777953)" font-family="sans-serif" font-size="10px" fill="#000" opacity="1">100</text><text text-anchor="end" transform="translate(-7,89.25454524467752)" font-family="sans-serif" font-size="10px" fill="#000" opacity="1">120</text><text text-anchor="end" transform="translate(-7,476.38168336190074)" font-family="sans-serif" font-size="10px" fill="#000" opacity="1">−120</text><text text-anchor="end" transform="translate(-7,56.99395040157562)" font-family="sans-serif" font-size="10px" fill="#000" opacity="1">140</text><text text-anchor="end" transform="translate(-7,24.733355558473665)" font-family="sans-serif" font-size="10px" fill="#000" opacity="1">160</text></g><g class="mark-rule role-axis-domain" pointer-events="none"><line transform="translate(0,500)" x2="0" y2="-500" stroke="#888" stroke-width="1" opacity="1"/></g><g class="mark-text role-axis-title" pointer-events="none"><text text-anchor="middle" transform="translate(-33.5244140625,250) rotate(-90) translate(0,-2)" font-family="sans-serif" font-size="11px" font-weight="bold" fill="#000" opacity="1">Percentage Return (%)</text></g></g><path class="foreground" aria-hidden="true" d="" pointer-events="none" display="none"/></g></g><g class="mark-group role-axis" role="graphics-symbol" aria-roledescription="axis" aria-label="Y-axis titled 'Percentage Return (%)' for a linear scale with values from −137 to 173"><g transform="translate(1000.5,0.5)"><path class="background" aria-hidden="true" d="M0,0h0v0h0Z" pointer-events="none"/><g><g class="mark-rule role-axis-tick" pointer-events="none"><line transform="translate(0,344)" x2="5" y2="0" stroke="#888" stroke-width="1" opacity="1"/><line transform="translate(0,377)" x2="5" y2="0" stroke="#888" stroke-width="1" opacity="1"/><line transform="translate(0,409)" x2="5" y2="0" stroke="#888" stroke-width="1" opacity="1"/><line transform="translate(0,441)" x2="5" y2="0" stroke="#888" stroke-width="1" opacity="1"/><line transform="translate(0,312)" x2="5" y2="0" stroke="#888" stroke-width="1" opacity="1"/><line transform="translate(0,280)" x2="5" y2="0" stroke="#888" stroke-width="1" opacity="1"/><line transform="translate(0,248)" x2="5" y2="0" stroke="#888" stroke-width="1" opacity="1"/><line transform="translate(0,215)" x2="5" y2="0" stroke="#888" stroke-width="1" opacity="1"/><line transform="translate(0,183)" x2="5" y2="0" stroke="#888" stroke-width="1" opacity="1"/><line transform="translate(0,151)" x2="5" y2="0" stroke="#888" stroke-width="1" opacity="1"/><line transform="translate(0,119)" x2="5" y2="0" stroke="#888" stroke-width="1" opacity="1"/><line transform="translate(0,86)" x2="5" y2="0" stroke="#888" stroke-width="1" opacity="1"/><line transform="translate(0,473)" x2="5" y2="0" stroke="#888" stroke-width="1" opacity="1"/><line transform="translate(0,54)" x2="5" y2="0" stroke="#888" stroke-width="1" opacity="1"/><line transform="translate(0,22)" x2="5" y2="0" stroke="#888" stroke-width="1" opacity="1"/></g><g class="mark-text role-axis-label" pointer-events="none"><text text-anchor="start" transform="translate(7,347.33930398949303)" font-family="sans-serif" font-size="10px" fill="#000" opacity="1">−40</text><text text-anchor="start" transform="translate(7,379.59989883259493)" font-family="sans-serif" font-size="10px" fill="#000" opacity="1">−60</text><text text-anchor="start" transform="translate(7,411.8604936756969)" font-family="sans-serif" font-size="10px" fill="#000" opacity="1">−80</text><text text-anchor="start" transform="translate(7,444.12108851879884)" font-family="sans-serif" font-size="10px" fill="#000" opacity="1">−100</text><text text-anchor="start" transform="translate(7,315.07870914639113)" font-family="sans-serif" font-size="10px" fill="#000" opacity="1">−20</text><text text-anchor="start" transform="translate(7,282.8181143032892)" font-family="sans-serif" font-size="10px" fill="#000" opacity="1">0</text><text text-anchor="start" transform="translate(7,250.55751946018722)" font-family="sans-serif" font-size="10px" fill="#000" opacity="1">20</text><text text-anchor="start" transform="translate(7,218.29692461708532)" font-family="sans-serif" font-size="10px" fill="#000" opacity="1">40</text><text text-anchor="start" transform="translate(7,186.03632977398337)" font-family="sans-serif" font-size="10px" fill="#000" opacity="1">60</text><text text-anchor="start" transform="translate(7,153.7757349308814)" font-family="sans-serif" font-size="10px" fill="#000" opacity="1">80</text><text text-anchor="start" transform="translate(7,121.51514008777953)" font-family="sans-serif" font-size="10px" fill="#000" opacity="1">100</text><text text-anchor="start" transform="translate(7,89.25454524467752)" font-family="sans-serif" font-size="10px" fill="#000" opacity="1">120</text><text text-anchor="start" transform="translate(7,476.38168336190074)" font-family="sans-serif" font-size="10px" fill="#000" opacity="1">−120</text><text text-anchor="start" transform="translate(7,56.99395040157562)" font-family="sans-serif" font-size="10px" fill="#000" opacity="1">140</text><text text-anchor="start" transform="translate(7,24.733355558473665)" font-family="sans-serif" font-size="10px" fill="#000" opacity="1">160</text></g><g class="mark-rule role-axis-domain" pointer-events="none"><line transform="translate(0,500)" x2="0" y2="-500" stroke="#888" stroke-width="1" opacity="1"/></g><g class="mark-text role-axis-title" pointer-events="none"><text text-anchor="middle" transform="translate(33.5244140625,250) rotate(90) translate(0,-2)" font-family="sans-serif" font-size="11px" font-weight="bold" fill="#000" opacity="1">Percentage Return (%)</text></g></g><path class="foreground" aria-hidden="true" d="" pointer-events="none" display="none"/></g></g><g class="mark-line role-mark view_4_marks" clip-path="url(#clip1)" role="graphics-object" aria-roledescription="line mark container"><path aria-label="Date: Jan 05, 2025; Percentage Return (%): 0; Cumulative Return (%): 0" role="graphics-symbol" aria-roledescription="line mark" d="M1.146,279.818L4.338,289.948L7.531,271.382L10.723,281.383L13.916,281.383L17.108,257.687L20.301,257.687L23.493,257.687L26.686,264.994L29.878,275.431L33.071,285.561L36.263,261.672L39.456,273.834L42.648,273.834L45.841,273.834L49.033,273.834L52.226,263.107L55.418,263.107L58.611,252.542L61.803,259.881L64.996,259.881L68.188,259.881L71.381,271.753L74.573,283.754L77.766,260.849L80.958,269.543L84.151,281.463L87.343,281.463L90.536,281.463L93.728,293.9L96.921,274.544L100.113,282.157L103.306,288.787L106.498,306.159L109.691,306.159L112.883,306.159L116.076,294.368L119.268,294.368L122.461,275.931L125.653,265.898L128.846,280.189L132.038,280.189L135.231,280.189L138.423,280.189L141.616,265.688L144.808,259.833L148.001,242.154L151.193,224.749L154.386,224.749L157.578,224.749L160.771,202.957L163.963,213.361L167.156,206.07L170.348,214.2L173.541,171.406L176.733,171.406L179.926,171.406L183.118,140.549L186.311,124.58L189.503,146.017L192.696,133.871L195.888,160.406L199.081,160.406L202.273,160.406L205.333,179.165L208.525,155.583L211.718,172.471L214.91,152.002L218.103,184.553L221.295,184.553L224.488,184.553L227.68,197.973L230.873,197.973L234.065,206.393L237.258,206.393L240.45,221.055L243.643,221.055L246.835,221.055L250.028,206.716L253.22,218.733L256.413,226.782L259.605,226.782L262.798,241.283L265.99,241.283L269.183,241.283L272.375,270.269L275.568,298.013L278.76,265.801L281.953,289.9L285.145,241.46L288.338,241.46L291.53,241.46L294.723,262.091L297.915,293.287L301.108,240.267L304.3,198.828L307.493,240.718L310.685,240.718L313.878,240.718L317.07,214.636L320.263,239.186L323.455,268.785L326.648,279.689L329.84,279.689L333.033,279.689L336.225,279.689L339.418,266.817L342.61,275.673L345.803,265.172L348.995,250.187L352.188,274.35L355.38,274.35L358.573,274.35L361.765,261.252L364.958,271.495L368.15,284.044L371.343,308.514L374.535,318.24L377.728,318.24L380.92,318.24L384.113,311.869L387.305,302.884L390.498,320.902L393.69,300.836L396.883,312.127L400.075,312.127L403.268,312.127L406.46,331.758L409.653,311.127L412.845,337.581L416.038,356.873L419.23,365.567L422.423,365.567L425.615,365.567L428.808,346.162L432,356.147L435.193,334.919L438.385,351.259L441.578,345.743L444.77,345.743L447.963,345.743L451.155,345.743L454.348,356.26L457.54,362.292L460.733,330.241L463.925,320.692L467.118,320.692L470.31,320.692L473.503,325.144L476.695,337.936L479.888,353.888L483.08,342.823L486.273,360.405L489.465,360.405L492.658,360.405L495.85,366.664L499.043,359.389L502.235,350.162L505.428,343.662L508.62,382.375L511.813,382.375L515.005,382.375L518.198,371.89L521.39,364.873L524.583,387.698L527.775,387.698L530.968,397.473L534.16,397.473L537.353,397.473L540.545,386.02L543.738,368.938L546.93,382.504" stroke="#14232E" stroke-width="4"/></g><g class="mark-line role-mark view_5_marks" clip-path="url(#clip2)" role="graphics-object" aria-roledescription="line mark container"><path aria-label="Date: Jan 05, 2025; Percentage Return (%): 0; Cumulative Return (%): 0" role="graphics-symbol" aria-roledescription="line mark" d="M1.146,279.818L4.338,289.948L7.531,271.382L10.723,281.383L13.916,281.383L17.108,257.687L20.301,257.687L23.493,257.687L26.686,264.994L29.878,275.431L33.071,285.561L36.263,261.672L39.456,273.834L42.648,273.834L45.841,273.834L49.033,273.834L52.226,263.107L55.418,263.107L58.611,252.542L61.803,259.881L64.996,259.881L68.188,259.881L71.381,271.753L74.573,283.754L77.766,260.849L80.958,269.543L84.151,281.463L87.343,281.463L90.536,281.463L93.728,293.9L96.921,274.544L100.113,282.157L103.306,288.787L106.498,306.159L109.691,306.159L112.883,306.159L116.076,294.368L119.268,294.368L122.461,275.931L125.653,290.077L128.846,297.384L132.038,297.384L135.231,297.384L138.423,297.384L141.616,282.883L144.808,288.706L148.001,271.027L151.193,253.623L154.386,253.623L157.578,253.623L160.771,231.83L163.963,242.235L167.156,250.606L170.348,258.736L173.541,215.942L176.733,215.942L179.926,215.942L183.118,185.085L186.311,202.764L189.503,213.765L192.696,226.475L195.888,239.944L199.081,239.944L202.273,239.944L205.333,258.704L208.525,235.121L211.718,252.009L214.91,231.54L218.103,248.477L221.295,248.477L224.488,248.477L227.68,261.897L230.873,261.897L234.065,270.317L237.258,270.317L240.45,284.98L243.643,284.98L246.835,284.98L250.028,270.64L253.22,276.592L256.413,284.641L259.605,284.641L262.798,299.142L265.99,299.142L269.183,299.142L272.375,328.128L275.568,342L278.76,309.788L281.953,333.887L285.145,285.448L288.338,285.448L291.53,285.448L294.723,306.078L297.915,322.531L301.108,269.511L304.3,228.072L307.493,249.896L310.685,249.896L313.878,249.896L317.07,223.814L320.263,236.282L323.455,251.493L326.648,267.833L329.84,267.833L333.033,267.833L336.225,267.833L339.418,254.961L342.61,263.817L345.803,275.14L348.995,260.155L352.188,272.237L355.38,272.237L358.573,272.237L361.765,286.335L364.958,296.577L368.15,309.127L371.343,321.16L374.535,330.887L377.728,330.887L380.92,330.887L384.113,337.823L387.305,349.307L390.498,358.631L393.69,338.565L396.883,344.388L400.075,344.388L403.268,344.388L406.46,364.018L409.653,343.388L412.845,356.808L416.038,366.648L419.23,375.342L422.423,375.342L425.615,375.342L428.808,355.937L432,360.97L435.193,339.742L438.385,356.082L441.578,350.566L444.77,350.566L447.963,350.566L451.155,350.566L454.348,361.083L457.54,367.115L460.733,335.064L463.925,345.388L467.118,345.388L470.31,345.388L473.503,366.373L476.695,379.165L479.888,388.456L483.08,402.796L486.273,411.683L489.465,411.683L492.658,411.683L495.85,417.942L499.043,425.765L502.235,436.088L505.428,429.588L508.62,449.348L511.813,449.348L515.005,449.348L518.198,438.863L521.39,448.702L524.583,460.332L527.775,460.332L530.968,470.107L534.16,470.107L537.353,470.107L540.545,489.544L543.738,472.462L546.93,479.398" stroke="#702632" stroke-width="4" stroke-dasharray="4,4"/></g><g class="mark-rule role-mark layer_2_marks" clip-path="url(#clip3)" role="graphics-object" aria-roledescription="rule mark container" pointer-events="none"><line aria-label="cumulative_net_return: 0" role="graphics-symbol" aria-roledescription="rule mark" transform="translate(1000,284.43078378058874)" x2="-1000" y2="0" stroke="#9A7116" stroke-width="1" stroke-dasharray="6,3"/></g><g class="mark-group role-title"><g transform="translate(500,-17)"><path class="background" aria-hidden="true" d="M0,0h0v0h0Z" pointer-events="none"/><g><g class="mark-text role-title-text" role="graphics-symbol" aria-roledescription="title" aria-label="Title text 'Cumulative Returns Over Time for  (Resampled: D)'" pointer-events="none"><text text-anchor="middle" transform="translate(0,10)" font-family="sans-serif" font-size="13px" font-weight="bold" fill="#000" opacity="1">Cumulative Returns Over Time for  (Resampled: D)</text></g></g><path class="foreground" aria-hidden="true" d="" pointer-events="none" display="none"/></g></g></g><path class="foreground" aria-hidden="true" d="" display="none"/></g></g></g><defs><clipPath id="clip1"><rect x="0" y="0" width="1000" height="500"/></clipPath><clipPath id="clip2"><rect x="0" y="0" width="1000" height="500"/></clipPath><clipPath id="clip3"><rect x="0" y="0" width="1000" height="500"/></clipPath></defs></svg>